<svg xmlns="http://www.w3.org/2000/svg" viewBox="0 0 73.47 73.47"><defs><style>.cls-1{fill:#ec4899;}.cls-2{fill:#fff;}</style></defs><g id="Capa_2" data-name="Capa 2"><g id="Capa_1-2" data-name="Capa 1"><circle class="cls-1" cx="36.73" cy="36.73" r="36.73"/><path class="cls-2" d="M44.66,26.52c1,.24,2,.47,3,.72a18.64,18.64,0,0,1,3,1,2.51,2.51,0,0,1,1.3,1.23,57,57,0,0,1,3,7.44,74.86,74.86,0,0,1,3.2,12,29.9,29.9,0,0,1,.45,8A6.43,6.43,0,0,1,58,59.33a.84.84,0,0,1-.86.52c-1.17,0-2.35,0-3.53,0A1.48,1.48,0,0,1,52,58.69c-1.67-5.61-3.39-11.21-4.76-16.91a1.43,1.43,0,0,0-.22-.72c0,5.27-.09,10.49.28,15.72a7.92,7.92,0,0,0,.35,2.15.67.67,0,0,1-.31.81,3.8,3.8,0,0,1-1.38.65A32.27,32.27,0,0,1,35.84,61.8a34.72,34.72,0,0,1-8.21-1.37,4.91,4.91,0,0,1-1.44-.65.74.74,0,0,1-.32-.94,10.66,10.66,0,0,0,.38-2.7c.3-5,.24-10,.17-15.06-.17.7-.33,1.39-.51,2.08C24.59,48.38,23,53.52,21.5,58.67a1.5,1.5,0,0,1-1.58,1.17c-1.18,0-2.36,0-3.53,0a.86.86,0,0,1-.89-.55,6.77,6.77,0,0,1-.65-2.68,33.83,33.83,0,0,1,.81-9.47A91.55,91.55,0,0,1,21,30.54a4.56,4.56,0,0,1,3.18-2.83c1.31-.35,2.61-.75,3.94-1,.44-.08.53-.16.28-.59A9.71,9.71,0,0,1,27,21.7a7.11,7.11,0,0,1,1.83-5.35,39.7,39.7,0,0,1,6.75-6.07c1.21-.85.92-.85,2.14,0a37.81,37.81,0,0,1,6.77,6.11c2.18,2.51,2.27,5.39,1.08,8.39-.12.3-.27.6-.42.9S44.82,26.22,44.66,26.52Z"/><path class="cls-1" d="M33.66,29a8.5,8.5,0,0,1-1.78-1.66,6,6,0,0,1-1.22-3.65,32.58,32.58,0,0,1,.07-4.42,6,6,0,0,1,11.86,1c0,1.11,0,2.22,0,3.33a6.06,6.06,0,0,1-2.4,4.91l-.39.31-.06.09a9.81,9.81,0,0,1,2.33,4.1,6.3,6.3,0,0,1-.39,4.46A14,14,0,0,0,40.54,45a28.68,28.68,0,0,0,1,5.66.79.79,0,0,1-.49,1c-.43.12-.8-.12-.94-.65a26,26,0,0,1-.9-10.56,8.44,8.44,0,0,1,.81-2.8c1.41-2.69.75-5-1-7.27a1.46,1.46,0,0,1-.16-.19c-.18-.27-.34-.3-.62-.07a2.24,2.24,0,0,1-3.11.05c-.13-.09-.23-.24-.4,0-1.46,1.73-2.41,3.61-1.84,6a3.82,3.82,0,0,0,.33.93,13.67,13.67,0,0,1,1.29,6.42,29.1,29.1,0,0,1-1,7.3c-.19.75-.51,1-1,.93s-.64-.53-.44-1.31A27.68,27.68,0,0,0,33,42.11a10.2,10.2,0,0,0-.93-4,7.24,7.24,0,0,1,.65-7.74c.15-.22.31-.43.47-.64S33.47,29.27,33.66,29Z"/></g></g></svg>