<svg id="Capa_1" data-name="Capa 1" xmlns="http://www.w3.org/2000/svg" viewBox="0 0 69.77 69.77"><defs><style>.cls-1{fill:#1d1d1b;}</style></defs><path class="cls-1" d="M126.05,228.47a34.89,34.89,0,1,0,34.89,34.88A34.88,34.88,0,0,0,126.05,228.47Zm-12.4,33.17-5.4-2.7c-.63-.31-.73-.58-.49-1.24q1.72-4.56,3.43-9.13a4.5,4.5,0,0,1,.79-1.4c.64,2.14,1.47,4.13,2,6.23a2,2,0,0,1,0,.35v8C113.85,261.82,113.75,261.7,113.65,261.64Zm23,20.55c0,.8-.19,1-1,1H116.37c-.73,0-.94-.21-.94-.95,0-8.75,0-17.49,0-26.24a15.22,15.22,0,0,0-.92-5.6c-.5-1.3-.88-2.64-1.34-4-.1-.29,0-.41.22-.55a17.89,17.89,0,0,1,2.49-1c1.24-.47,2.5-.91,3.79-1.38a8.81,8.81,0,0,0,1.73,5.81,5.61,5.61,0,0,0,5.19,2.43,5.77,5.77,0,0,0,4.06-2.4,8.75,8.75,0,0,0,1.75-5.43v-.42l2.18.8c1.21.45,2.43.87,3.63,1.34.84.34.83.37.55,1.2-.57,1.69-1.12,3.39-1.7,5.08a7.68,7.68,0,0,0-.41,2.51Zm7.19-23.25-5.76,2.89c0-2.76,0-5.46,0-8.16a3.66,3.66,0,0,1,.23-1.07q.87-2.58,1.72-5.18a1.46,1.46,0,0,1,.11-.21,4.24,4.24,0,0,1,.75,1.36q1.72,4.56,3.43,9.13C144.59,258.36,144.48,258.63,143.86,258.94Z" transform="translate(-91.17 -228.47)"/></svg>